<?xml version="1.0" encoding="utf-8"?>
<!-- Generator: Adobe Illustrator 23.0.3, SVG Export Plug-In . SVG Version: 6.00 Build 0)  -->
<svg version="1.1" id="Layer_1" xmlns="http://www.w3.org/2000/svg" xmlns:xlink="http://www.w3.org/1999/xlink" x="0px" y="0px"
	 viewBox="0 0 231 134" style="enable-background:new 0 0 231 134;" xml:space="preserve">
<style type="text/css">
	.st0{clip-path:url(#SVGID_2_);}
	.st1{clip-path:url(#SVGID_4_);}
	.st2{clip-path:url(#SVGID_4_);fill:#F78F1E;}
	.st3{clip-path:url(#SVGID_6_);}
	.st4{clip-path:url(#SVGID_8_);fill:#FFFFFF;}
	.st5{clip-path:url(#SVGID_8_);fill:#F78F1E;}
	.st6{clip-path:url(#SVGID_10_);}
	.st7{clip-path:url(#SVGID_12_);}
	.st8{clip-path:url(#SVGID_12_);fill:#FFFFFF;}
</style>
<g>
	<g>
		<defs>
			<rect id="SVGID_5_" width="231" height="134"/>
		</defs>
		<clipPath id="SVGID_2_">
			<use xlink:href="#SVGID_5_"  style="overflow:visible;"/>
		</clipPath>
		<g class="st0">
			<defs>
				<rect id="SVGID_7_" width="231" height="134"/>
			</defs>
			<clipPath id="SVGID_4_">
				<use xlink:href="#SVGID_7_"  style="overflow:visible;"/>
			</clipPath>
			<path style="clip-path:url(#SVGID_4_);fill:#FFFFFF;" d="M31.63,77.04c-2.07,1.13-4.37,1.69-6.88,1.69
				c-2.65,0-5.03-0.71-7.14-2.12c-2.03-1.32-3.66-3.25-4.89-5.79c-1.15-2.54-1.72-5.35-1.72-8.41c0-3.3,0.64-6.31,1.92-9.04
				c1.37-2.87,3.13-5.02,5.29-6.43c2.16-1.55,4.63-2.33,7.41-2.33c2.34,0,4.48,0.57,6.42,1.69c1.94,1.13,3.46,2.71,4.56,4.73
				c1.15,2.17,1.79,4.94,1.92,8.34H18.86v0.99c0,3.67,0.42,6.63,1.26,8.87c0.84,2.24,1.94,3.9,3.31,4.98
				c0.7,0.57,1.45,0.92,2.25,1.06c0.49,0.14,0.97,0.21,1.45,0.21c0.27,0,0.55-0.02,0.86-0.07c0.79-0.1,1.58-0.29,2.35-0.6
				c0.77-0.31,1.49-0.67,2.15-1.1c1.59-0.94,3.18-2.21,4.76-3.82l0.26,0.35l0.66,1.13C35.88,73.98,33.7,75.87,31.63,77.04
				 M22.04,76.06c-3.57-2.87-5.36-8.1-5.36-15.68V58.6h-0.13l0.13-1.06v-0.49h0.07l0.13-1.13c0.31-2.64,0.9-4.78,1.79-6.43
				c-1.5,1.13-2.76,2.78-3.77,4.94c-1.15,2.36-1.72,5.02-1.72,7.98c0,2.73,0.51,5.18,1.52,7.35c0.49,1.08,1.07,2.01,1.75,2.79
				c0.68,0.78,1.47,1.47,2.35,2.08C19.86,75.3,20.94,75.77,22.04,76.06 M20.25,74.92c-0.35-0.19-0.75-0.42-1.19-0.71
				c-1.68-1.08-3-2.64-3.97-4.66c-0.97-2.17-1.45-4.54-1.45-7.14c0-2.83,0.55-5.42,1.65-7.77c0.31-0.66,0.64-1.26,0.99-1.8
				c0.35-0.54,0.73-1.07,1.12-1.59c-0.44,1.41-0.77,2.94-0.99,4.59l-0.07,0.71h-0.07v0.92l-0.2,1.55h0.13v1.34
				C16.22,66.92,17.56,71.77,20.25,74.92 M23.49,47.34c-0.66,0.31-1.29,0.82-1.89,1.55c-0.59,0.73-1.11,1.7-1.55,2.9
				c-0.44,1.2-0.77,2.67-0.99,4.42h12.1c-0.18-2.69-0.72-4.87-1.62-6.57c-0.9-1.7-2.17-2.59-3.8-2.69c-0.09-0.05-0.2-0.07-0.33-0.07
				C24.79,46.88,24.15,47.03,23.49,47.34 M31.63,48.78c0.97,1.88,1.56,4.31,1.79,7.28v0.99h2.65c-0.09-0.99-0.25-1.87-0.5-2.65
				c-0.24-0.78-0.54-1.5-0.89-2.15C33.88,50.79,32.86,49.63,31.63,48.78 M32.75,50.41c0.31,0.28,0.58,0.6,0.83,0.95
				c0.24,0.35,0.47,0.72,0.69,1.1v0.07c0.62,1.13,1.06,2.47,1.32,4.03h-1.72l-0.07-0.49C33.68,53.85,33.33,51.96,32.75,50.41"/>
			<path style="clip-path:url(#SVGID_4_);fill:#FFFFFF;" d="M66.29,52c1.19,0.92,2.2,1.99,3.04,3.22c0.84,1.22,1.5,2.58,1.98,4.06
				c0.49,1.48,0.73,3.05,0.73,4.7c0,2.03-0.36,3.93-1.09,5.72c-0.73,1.79-1.72,3.36-2.98,4.7c-1.26,1.34-2.72,2.4-4.4,3.18
				s-3.46,1.17-5.36,1.17H38.51v-1.56h0.99c0.88,0,1.64-0.34,2.28-1.02c0.64-0.68,0.96-1.52,0.96-2.51v-0.49
				c-0.71-1.08-1.26-2.26-1.65-3.53s-0.6-2.61-0.6-4.03c0-1.37,0.2-2.68,0.6-3.96c0.4-1.27,0.95-2.45,1.65-3.53V39.67
				c0-0.94-0.32-1.75-0.96-2.44c-0.64-0.68-1.4-1.03-2.28-1.03h-0.99v-1.55h19.98c1.06,0,2.06,0.21,3.01,0.64
				c0.95,0.42,1.76,1.01,2.45,1.77c0.68,0.75,1.23,1.63,1.65,2.61c0.42,0.99,0.63,2.05,0.63,3.18c0,1.51-0.34,2.89-1.02,4.13
				c-0.68,1.25-1.6,2.22-2.74,2.93C63.82,50.39,65.1,51.08,66.29,52 M62.78,69.91c1.15-1.6,1.76-3.44,1.85-5.51
				c0-0.09,0.01-0.17,0.03-0.21c0.02-0.05,0.03-0.12,0.03-0.21v-0.14c0-2.82-0.65-5.33-1.95-7.52c-1.3-2.19-2.99-3.78-5.06-4.77
				l-0.99-0.42c-0.09-0.05-0.15-0.07-0.2-0.07c-0.04,0-0.11-0.02-0.2-0.07c-0.04,0-0.09-0.02-0.13-0.07c-0.09,0-0.18-0.01-0.26-0.04
				c-0.09-0.02-0.18-0.04-0.26-0.04c0-0.05-0.02-0.07-0.07-0.07c-0.09,0-0.17-0.01-0.23-0.03c-0.07-0.02-0.14-0.04-0.23-0.04h-0.13
				c-0.09-0.05-0.22-0.07-0.4-0.07c-0.13,0-0.22-0.02-0.26-0.07H52.8c-0.09,0-0.16,0.01-0.2,0.03c-0.04,0.02-0.09,0.04-0.13,0.04
				h-0.2c-0.09,0-0.17,0.01-0.23,0.03c-0.07,0.02-0.14,0.04-0.23,0.04c0.04,0,0.11-0.03,0.2-0.07l0.59-0.21
				c0.18-0.09,0.31-0.14,0.4-0.14c0.09-0.05,0.15-0.07,0.2-0.07c0.04,0,0.09-0.02,0.13-0.07c0.44-0.09,0.82-0.19,1.13-0.28
				c0.35-0.09,0.62-0.19,0.79-0.28h0.06c0.13-0.09,0.28-0.19,0.43-0.28c0.15-0.1,0.3-0.19,0.43-0.28h0.07l0.2-0.21
				c0.09-0.09,0.15-0.15,0.2-0.18s0.09-0.06,0.13-0.11l0.07-0.07c0.04-0.14,0.13-0.24,0.26-0.28c0.04-0.05,0.08-0.09,0.1-0.14
				c0.02-0.05,0.06-0.09,0.1-0.14l0.13-0.14c0-0.09,0.04-0.14,0.13-0.14c0.84-1.32,1.26-2.85,1.26-4.59v-0.21
				c-0.04-1.79-0.54-3.31-1.49-4.56c-0.95-1.25-2.08-1.92-3.41-2.01h-0.53c-0.97,0-1.76,0.38-2.38,1.13
				c-0.57,0.71-0.86,1.48-0.86,2.33v11.45c-1.15,0.42-2.21,1.05-3.18,1.87c-0.97,0.82-1.81,1.78-2.51,2.86
				c-0.04,0.09-0.08,0.15-0.1,0.18s-0.06,0.08-0.1,0.18l0.2-0.21c1.19-1.23,2.6-2.12,4.23-2.69c0.35-0.19,0.84-0.35,1.46-0.49
				c0.75-0.19,1.63-0.28,2.65-0.28h0.79c0.18,0.05,0.4,0.07,0.66,0.07h0.13c0.35,0.09,0.68,0.17,0.99,0.21
				c0.31,0.05,0.62,0.12,0.92,0.21c0.49,0.14,1.06,0.35,1.72,0.64c0.13,0.09,0.29,0.19,0.46,0.28c0.09,0.05,0.15,0.07,0.2,0.07
				l0.13,0.07l0.13,0.14c0.27,0.14,0.52,0.29,0.76,0.46c0.24,0.17,0.47,0.34,0.69,0.53c0.93,0.85,1.7,1.81,2.31,2.9
				c0.31,0.66,0.57,1.29,0.79,1.91c0.27,0.94,0.4,1.86,0.4,2.76c0,0.71-0.07,1.39-0.2,2.05c-0.09,0.19-0.13,0.35-0.13,0.5
				c-0.09,0.14-0.14,0.27-0.17,0.39c-0.02,0.12-0.08,0.25-0.17,0.39v0.07c-0.04,0-0.07,0.02-0.07,0.07
				c-0.18,0.42-0.42,0.82-0.73,1.2c-0.57,0.75-1.28,1.27-2.12,1.55c-0.53,0.19-1.04,0.28-1.52,0.28c-0.4,0-0.79-0.05-1.19-0.14
				c-0.4-0.14-0.84-0.33-1.32-0.57c-0.88-0.57-1.52-1.39-1.92-2.47c-0.26-0.61-0.4-1.27-0.4-1.98c0-0.42,0.04-0.85,0.13-1.27
				c0.13-0.71,0.4-1.32,0.79-1.84c0.4-0.52,0.86-0.97,1.39-1.34c0.04-0.05,0.09-0.07,0.13-0.07c0.04,0,0.09-0.02,0.13-0.07
				c0.49-0.28,0.77-0.64,0.86-1.06v-0.21c0-0.33-0.2-0.61-0.59-0.85c-0.09,0-0.18-0.05-0.27-0.14c-0.04,0-0.08-0.01-0.1-0.04
				c-0.02-0.02-0.08-0.04-0.17-0.04c-1.01-0.47-2.18-0.71-3.5-0.71c-0.97,0-1.85,0.14-2.65,0.42c-1.41,0.52-2.62,1.34-3.64,2.47
				c-1.01,1.13-1.7,2.45-2.05,3.96c0,0.09-0.01,0.16-0.03,0.21c-0.02,0.05-0.03,0.12-0.03,0.21c-0.13,0.57-0.2,1.18-0.2,1.84
				c0,0.42,0.02,0.82,0.07,1.2c0.04,0.38,0.11,0.75,0.2,1.13c0.4,1.6,1.12,2.97,2.18,4.1c0.66,0.71,1.34,1.25,2.05,1.63
				c0.4,0.24,0.88,0.47,1.46,0.71h0.07c0.79,0.28,1.65,0.42,2.58,0.42c1.28,0,2.45-0.14,3.5-0.42
				C59.12,73.56,61.28,72.08,62.78,69.91 M44.99,39.67v12.01c0.84-0.8,1.81-1.51,2.91-2.12v-9.89c0-0.33,0.04-0.73,0.13-1.2
				c0.09-0.24,0.15-0.45,0.2-0.64c0.04-0.19,0.09-0.35,0.13-0.49c0.04-0.05,0.11-0.17,0.2-0.35h-4.23
				C44.77,37.93,44.99,38.82,44.99,39.67 M48.26,76.09c-0.2-0.12-0.41-0.22-0.63-0.32c-1.01-0.57-1.87-1.27-2.58-2.12
				c-0.04,0-0.06-0.02-0.06-0.07v0.07c0,0.9-0.22,1.81-0.66,2.76h4.56C48.67,76.31,48.46,76.21,48.26,76.09 M45.06,37.48h2.85
				c-0.09,0.14-0.18,0.42-0.26,0.85c-0.09,0.24-0.13,0.45-0.13,0.63v10.32c-0.35,0.24-0.71,0.46-1.06,0.67
				c-0.35,0.21-0.71,0.46-1.06,0.74V39.67C45.39,39.01,45.28,38.28,45.06,37.48 M45.22,75.28c0.02-0.19,0.06-0.4,0.1-0.64
				c0.57,0.52,1.13,0.94,1.65,1.27h-1.92C45.14,75.68,45.2,75.47,45.22,75.28 M56.24,63.41c-0.05,0.24-0.07,0.47-0.07,0.71
				c0,0.33,0.07,0.68,0.2,1.06c0.22,0.57,0.57,1.01,1.06,1.34c0.22,0.14,0.46,0.24,0.73,0.28c0.22,0.05,0.44,0.07,0.66,0.07
				c0.26,0,0.53-0.05,0.79-0.14c0.44-0.14,0.81-0.4,1.13-0.78c0.18-0.19,0.33-0.42,0.46-0.71l0.2-0.57c0-0.05,0.02-0.1,0.07-0.14
				c0.04-0.09,0.07-0.17,0.07-0.21c0-0.05,0.02-0.1,0.07-0.14c0.09-0.42,0.13-0.85,0.13-1.27c0-0.71-0.11-1.44-0.33-2.19
				c-0.09-0.24-0.19-0.47-0.3-0.71c-0.11-0.23-0.21-0.47-0.3-0.71c-0.17-0.33-0.38-0.64-0.59-0.92c-0.22-0.28-0.44-0.54-0.66-0.78
				c0.04,0.19,0.07,0.47,0.07,0.85c0,1.37-0.68,2.43-2.05,3.18l-0.13,0.07C56.85,62.04,56.46,62.61,56.24,63.41 M57.69,62.14
				L57.82,62c1.24-0.75,1.96-1.77,2.18-3.04c0.09,0.09,0.22,0.28,0.4,0.57c0.09,0.24,0.19,0.46,0.3,0.67
				c0.11,0.21,0.21,0.44,0.3,0.67c0.22,0.66,0.33,1.29,0.33,1.91c0,0.42-0.07,0.85-0.2,1.27c0,0.05-0.01,0.08-0.03,0.11
				c-0.02,0.02-0.03,0.08-0.03,0.18l-0.26,0.71l-0.4,0.63c-0.44,0.52-0.95,0.78-1.52,0.78c-0.18,0-0.38-0.02-0.6-0.07
				c-0.26-0.09-0.46-0.19-0.6-0.28c-0.44-0.24-0.75-0.59-0.93-1.06c-0.09-0.28-0.13-0.57-0.13-0.85c0-0.19,0.02-0.4,0.07-0.64
				C56.83,62.89,57.16,62.42,57.69,62.14 M62.72,75.42c1.41-0.66,2.65-1.55,3.7-2.68c1.06-1.13,1.9-2.45,2.51-3.96
				c0.62-1.51,0.93-3.11,0.93-4.81c0-2.54-0.65-4.84-1.95-6.89c-1.3-2.05-3.01-3.57-5.13-4.56c1.28,1.46,2.28,3.16,3.01,5.09
				c0.73,1.93,1.09,4,1.09,6.22v0.64c-0.13,2.54-0.9,4.83-2.31,6.85c-1.72,2.4-3.99,4.07-6.81,5.01h0.2c0.04,0,0.09,0.01,0.13,0.03
				c0.04,0.03,0.09,0.04,0.13,0.04C59.81,76.41,61.31,76.08,62.72,75.42 M61.06,42.85v0.35c-0.04,0.85-0.18,1.65-0.4,2.4
				c-0.22,0.75-0.46,1.41-0.73,1.98c-0.31,0.66-0.64,1.27-0.99,1.84l2.38-1.55c0.84-0.52,1.49-1.21,1.95-2.08
				c0.46-0.87,0.69-1.85,0.69-2.93c0-1.51-0.45-2.79-1.35-3.85c-0.9-1.06-2.02-1.71-3.34-1.94c0.49,0.75,0.88,1.59,1.19,2.51
				c0.31,0.92,0.49,1.9,0.53,2.93C61.04,42.59,61.06,42.71,61.06,42.85 M60.27,37.83c0.97,0.38,1.76,1.03,2.38,1.94
				c0.62,0.92,0.93,1.94,0.93,3.07c0,0.94-0.22,1.83-0.66,2.65c-0.44,0.82-1.04,1.5-1.79,2.01l-0.86,0.57
				c0.26-0.61,0.52-1.34,0.76-2.19c0.24-0.85,0.39-1.74,0.43-2.68v-0.78C61.37,40.68,60.98,39.15,60.27,37.83 M68.11,58.39
				c0.86,1.74,1.29,3.6,1.29,5.58c0,1.46-0.23,2.84-0.69,4.13c-0.46,1.3-1.09,2.46-1.89,3.5c-0.79,1.04-1.73,1.91-2.81,2.61
				c-1.08,0.71-2.26,1.2-3.54,1.48c0.88-0.52,1.7-1.13,2.45-1.84c0.75-0.71,1.41-1.46,1.98-2.26c1.5-2.12,2.29-4.47,2.38-7.07
				c0.04-0.14,0.07-0.33,0.07-0.57v-0.14c0-1.79-0.24-3.51-0.73-5.16c-0.49-1.65-1.17-3.15-2.05-4.52
				C66.07,55.24,67.25,56.65,68.11,58.39"/>
			<path style="clip-path:url(#SVGID_4_);fill:#FFFFFF;" d="M100.68,76.27c0.53,0.61,1.1,0.92,1.72,0.92v1.56
				c-1.94,0-3.59-0.26-4.96-0.78c-1.37-0.52-2.47-1.36-3.31-2.54c-2.87,2.5-5.98,3.74-9.33,3.74c-2.87,0-5.14-0.82-6.81-2.47
				c-1.72-1.6-2.58-3.72-2.58-6.36c0-1.74,0.35-3.27,1.06-4.59c1.19-2.64,3.28-4.81,6.28-6.5c1.28-0.71,2.72-1.31,4.33-1.8
				c1.61-0.49,3.41-0.86,5.39-1.09h0.07c0-0.38-0.01-0.74-0.03-1.1c-0.02-0.35-0.03-0.72-0.03-1.1v-0.42
				c-0.04-0.75-0.11-1.48-0.2-2.19c-0.18-1.22-0.42-2.17-0.73-2.83c-0.4-0.75-0.9-1.37-1.52-1.84c-0.66-0.42-1.34-0.64-2.05-0.64
				c-0.88,0-1.54,0.28-1.98,0.85c-0.26,0.28-0.4,0.64-0.4,1.06c0,0.38,0.11,0.82,0.33,1.34c0.44,0.8,0.66,1.58,0.66,2.33
				c0,0.71-0.13,1.34-0.4,1.91c-0.35,0.75-0.83,1.37-1.42,1.84c-0.59,0.47-1.27,0.75-2.02,0.85c-0.09,0-0.17,0.01-0.23,0.04
				c-0.07,0.02-0.14,0.04-0.23,0.04c-1.15,0-2.13-0.4-2.94-1.2c-0.82-0.8-1.27-1.81-1.36-3.04c0-0.05-0.01-0.09-0.03-0.14
				c-0.02-0.05-0.03-0.09-0.03-0.14v-0.14l0.07-0.14c0-1.22,0.44-2.35,1.32-3.39c0.88-1.08,2.1-1.91,3.64-2.47
				c1.54-0.61,3.26-0.92,5.16-0.92c2.42,0,4.54,0.5,6.35,1.48c1.81,1.04,3.18,2.5,4.1,4.38c0.22,0.52,0.43,1.04,0.63,1.55
				c0.2,0.52,0.34,1.06,0.43,1.63c0.13,0.85,0.2,1.86,0.2,3.04v4.59h0.07v12.43C99.89,74.9,100.15,75.65,100.68,76.27 M83.55,76.76
				c-0.26-0.28-0.46-0.52-0.6-0.71c-1.41-1.65-2.12-3.67-2.12-6.08c0-2.35,0.6-4.45,1.79-6.29c0.22-0.33,0.45-0.65,0.69-0.95
				c0.24-0.31,0.5-0.6,0.76-0.88c0.22-0.24,0.45-0.47,0.69-0.71c0.24-0.24,0.52-0.47,0.83-0.71c-0.71,0.33-1.32,0.64-1.85,0.92
				c-2.6,1.46-4.36,3.25-5.29,5.37l-0.07,0.07c-0.53,1.08-0.79,2.26-0.79,3.53c0,1.88,0.62,3.41,1.85,4.59
				C80.46,75.91,81.83,76.53,83.55,76.76 M80.44,69.98c0,2.4,0.62,4.43,1.85,6.08c-1.01-0.28-1.85-0.78-2.51-1.48
				c-1.15-1.04-1.72-2.45-1.72-4.24c0-1.18,0.24-2.28,0.73-3.32l0.07-0.07c0.79-1.74,2.21-3.27,4.23-4.59
				c-0.35,0.38-0.62,0.73-0.79,1.06C81.06,65.29,80.44,67.48,80.44,69.98 M84.35,51.82c0-0.42-0.09-0.8-0.26-1.13l-1.26-2.26
				c-0.84,0.42-1.48,0.92-1.92,1.48c-0.49,0.61-0.73,1.22-0.73,1.84v0.28c0.09,0.61,0.32,1.11,0.69,1.48s0.85,0.57,1.42,0.57h0.2
				c0.79-0.09,1.35-0.52,1.65-1.27C84.28,52.48,84.35,52.15,84.35,51.82 M83.95,51.82c0,0.24-0.07,0.49-0.2,0.78
				c-0.22,0.57-0.66,0.89-1.32,0.99h-0.13c-1.01,0-1.57-0.54-1.65-1.63v-0.14c0-0.57,0.2-1.11,0.59-1.63
				c0.35-0.38,0.82-0.75,1.39-1.13l1.06,1.91C83.86,51.35,83.95,51.63,83.95,51.82 M93.41,74.15c-0.62-1.41-0.93-3.08-0.93-5.02
				v-9.39c-1.54,0.47-2.87,0.99-3.97,1.55c-1.15,0.66-2.09,1.39-2.84,2.19c-0.49,0.52-0.88,1.01-1.19,1.48
				c-0.93,1.51-1.39,3.18-1.39,5.02c0,1.89,0.51,3.39,1.52,4.52c1.01,1.22,2.25,1.84,3.71,1.84C89.81,76.34,91.51,75.61,93.41,74.15
				 M97.84,75.56c-0.13-0.47-0.2-0.99-0.2-1.56V57.05c-0.09-1.13-0.16-2.02-0.2-2.68c-0.22-0.94-0.51-1.79-0.86-2.54
				c-0.62-1.27-1.48-2.26-2.58-2.97c0.09,0.33,0.16,0.68,0.23,1.06c0.07,0.38,0.14,0.8,0.23,1.27c0.04,0.38,0.08,0.75,0.1,1.13
				c0.02,0.38,0.06,0.82,0.1,1.34v0.42c0.04,0.38,0.07,0.75,0.07,1.13v3.32h-0.07v6.29l0.07,2.33v1.98c0,1.7,0.22,3.04,0.66,4.03
				l0.2,0.49l0.33,0.35C96.36,74.66,97,75.18,97.84,75.56 M96.25,73.72l-0.27-0.35l-0.2-0.42c-0.44-1.08-0.66-2.36-0.66-3.82V58.96
				h0.06v-2.61c0-0.38-0.01-0.75-0.03-1.13c-0.02-0.38-0.03-0.75-0.03-1.13v-0.49c-0.05-0.52-0.08-0.97-0.1-1.34
				c-0.02-0.38-0.08-0.75-0.17-1.13c0-0.24-0.01-0.44-0.03-0.6c-0.02-0.17-0.06-0.34-0.1-0.53c0.57,0.52,1.06,1.22,1.46,2.12
				c0.4,0.66,0.66,1.44,0.79,2.33c0.13,0.71,0.2,1.58,0.2,2.61v4.52l0.07,2.33v10.81C96.8,74.38,96.47,74.05,96.25,73.72"/>
			<path style="clip-path:url(#SVGID_4_);fill:#FFFFFF;" d="M130.94,55.99c-0.82,0.8-1.8,1.2-2.94,1.2h-0.46
				c-1.5-0.24-2.6-1.04-3.31-2.4c-0.35-0.66-0.53-1.39-0.53-2.19c0-0.9,0.2-1.67,0.6-2.33c0.26-0.52,0.4-0.99,0.4-1.41
				c0-0.38-0.11-0.73-0.33-1.06c-0.49-0.57-1.17-0.85-2.05-0.85c-0.75,0.09-1.43,0.33-2.05,0.71c-0.66,0.42-1.17,1.01-1.52,1.77
				c-0.31,0.61-0.55,1.55-0.73,2.83c-0.04,0.38-0.09,0.76-0.13,1.17c-0.04,0.4-0.07,0.86-0.07,1.38v18.86
				c0,0.99,0.32,1.82,0.96,2.51c0.64,0.68,1.4,1.02,2.28,1.02h0.99v1.56h-15.88v-1.56h0.99c0.88,0,1.64-0.34,2.28-1.02
				c0.64-0.68,0.96-1.52,0.96-2.51V52.18c0-0.99-0.31-1.72-0.93-2.19c-0.44-0.33-0.93-0.49-1.46-0.49c-0.26,0-0.55,0.05-0.86,0.14
				l-0.99,0.28v-1.56l11.64-3.46v1.41c1.28-0.47,2.74-0.71,4.36-0.71c1.76,0,3.46,0.31,5.09,0.92c1.59,0.66,2.82,1.51,3.7,2.54
				c0.88,1.04,1.32,2.17,1.32,3.39v0.57C132.21,54.2,131.76,55.19,130.94,55.99 M115.57,73.65V54.72c0.04-0.57,0.08-1.08,0.1-1.55
				c0.02-0.47,0.08-0.9,0.17-1.27c0.13-1.08,0.33-1.98,0.6-2.68l-0.86,0.28v-1.48l-3.77,1.13c0.57,0.94,0.86,1.95,0.86,3.04v21.48
				c0,0.9-0.22,1.81-0.66,2.76h4.23C115.79,75.47,115.57,74.55,115.57,73.65 M115.23,53.13c-0.04,0.49-0.06,1.02-0.06,1.59v18.93
				c0,0.71,0.11,1.46,0.33,2.26h-2.78c0.22-0.8,0.33-1.55,0.33-2.26V52.18c0-0.99-0.2-1.91-0.59-2.75l2.71-0.78v1.48l0.59-0.21
				c-0.13,0.56-0.26,1.2-0.4,1.91C115.32,52.2,115.28,52.63,115.23,53.13 M129.89,51.5c-0.11-0.31-0.3-0.6-0.56-0.88
				c-0.49-0.61-1.1-1.08-1.85-1.41l-1.26,2.26c-0.18,0.33-0.26,0.71-0.26,1.13c0,0.38,0.07,0.73,0.2,1.06
				c0.35,0.66,0.9,1.04,1.65,1.13c0.04,0.05,0.11,0.07,0.2,0.07c0.57,0,1.05-0.2,1.42-0.6c0.38-0.4,0.61-0.88,0.69-1.45v-0.28
				C130.07,52.15,130,51.81,129.89,51.5 M129.65,52.53v0.21c-0.04,0.47-0.22,0.86-0.53,1.17c-0.31,0.31-0.68,0.46-1.13,0.46h-0.2
				c-0.53-0.09-0.95-0.4-1.26-0.92c-0.13-0.28-0.2-0.57-0.2-0.85c0-0.38,0.09-0.68,0.26-0.92l1.06-1.84
				c0.48,0.28,0.93,0.66,1.32,1.13C129.43,51.45,129.65,51.96,129.65,52.53"/>
			<path style="clip-path:url(#SVGID_4_);fill:#FFFFFF;" d="M161.37,70.16c-0.68,1.72-1.62,3.21-2.81,4.49
				c-1.19,1.27-2.59,2.27-4.2,3c-1.61,0.73-3.32,1.1-5.13,1.1c-1.46,0-2.84-0.25-4.17-0.74c-1.32-0.49-2.53-1.16-3.64-2.01
				c-1.68,1.84-4.3,2.76-7.87,2.76v-1.56c0.62,0,1.19-0.31,1.72-0.92c0.53-0.61,0.79-1.37,0.79-2.26V41.93
				c0-0.99-0.31-1.72-0.93-2.19c-0.44-0.33-0.93-0.49-1.46-0.49c-0.26,0-0.55,0.05-0.86,0.14l-0.99,0.28v-1.55l11.64-3.46v11.66
				c1.76-0.94,3.68-1.41,5.75-1.41c1.76,0,3.44,0.35,5.03,1.06c1.59,0.71,2.98,1.68,4.17,2.93c1.19,1.25,2.14,2.7,2.84,4.35
				c0.71,1.65,1.08,3.42,1.13,5.3v6.15C162.4,66.61,162.06,68.44,161.37,70.16 M143.18,74.39c0.15,0.12,0.32,0.22,0.5,0.32
				c-0.75-0.8-1.35-1.71-1.79-2.72c-0.44-1.01-0.66-2.13-0.66-3.36V54.86c0.04-1.22,0.29-2.34,0.73-3.36
				c0.44-1.01,1.04-1.92,1.78-2.72l-2.51,1.34V37.76l-3.77,1.13c0.57,0.94,0.86,1.96,0.86,3.04v32.07c0,0.52-0.07,1.06-0.2,1.63
				c0.75-0.38,1.3-0.8,1.65-1.27l1.39-1.55l1.59,1.27C142.88,74.17,143.03,74.28,143.18,74.39 M141.69,72.66l-0.59-0.49l-1.65,1.91
				c-0.13,0.14-0.38,0.35-0.73,0.64V41.93c0-0.99-0.2-1.91-0.6-2.75l2.71-0.78v12.43l1.32-0.64c-0.88,1.37-1.32,2.92-1.32,4.66
				v13.78C140.83,70.1,141.12,71.44,141.69,72.66 M153.37,72.98c1.12-1.2,1.69-2.65,1.69-4.35V55c0-1.69-0.56-3.15-1.69-4.38
				c-1.13-1.23-2.5-1.84-4.13-1.84c-1.59,0-2.94,0.6-4.07,1.8c-1.13,1.2-1.69,2.65-1.69,4.35v13.71c0,1.7,0.56,3.14,1.69,4.35
				c1.12,1.2,2.48,1.8,4.07,1.8C150.87,74.78,152.24,74.18,153.37,72.98 M158.73,70.58c0.99-1.77,1.49-3.73,1.49-5.9V58.6
				c-0.09-2.07-0.62-3.94-1.59-5.62c-0.97-1.67-2.23-3.03-3.77-4.06c1.59,1.6,2.38,3.63,2.38,6.07v13.64c0,1.22-0.21,2.35-0.63,3.39
				c-0.42,1.04-1,1.93-1.75,2.68C156.44,73.72,157.73,72.35,158.73,70.58 M159.75,58.6v6.08c0,1.41-0.24,2.78-0.73,4.1
				c-0.49,1.32-1.17,2.5-2.05,3.53c0.49-1.27,0.73-2.5,0.73-3.67V55c0-1.22-0.24-2.42-0.73-3.6
				C158.74,53.47,159.66,55.87,159.75,58.6"/>
			<path style="clip-path:url(#SVGID_4_);fill:#FFFFFF;" d="M186.34,77.04c-2.07,1.13-4.37,1.69-6.88,1.69
				c-2.64,0-5.03-0.71-7.14-2.12c-2.03-1.32-3.66-3.25-4.9-5.79c-1.15-2.54-1.72-5.35-1.72-8.41c0-3.3,0.64-6.31,1.92-9.04
				c1.37-2.87,3.13-5.02,5.29-6.43c2.16-1.55,4.63-2.33,7.41-2.33c2.34,0,4.48,0.57,6.42,1.69c1.94,1.13,3.46,2.71,4.56,4.73
				c1.15,2.17,1.79,4.94,1.92,8.34h-19.65v0.99c0,3.67,0.42,6.63,1.26,8.87s1.94,3.9,3.31,4.98c0.71,0.57,1.46,0.92,2.25,1.06
				c0.49,0.14,0.97,0.21,1.46,0.21c0.26,0,0.55-0.02,0.86-0.07c0.79-0.1,1.58-0.29,2.35-0.6c0.77-0.31,1.49-0.67,2.15-1.1
				c1.59-0.94,3.18-2.21,4.76-3.82l0.26,0.35l0.66,1.13C190.6,73.98,188.41,75.87,186.34,77.04 M176.75,76.06
				c-3.57-2.87-5.36-8.1-5.36-15.68V58.6h-0.13l0.13-1.06v-0.49h0.07l0.13-1.13c0.31-2.64,0.9-4.78,1.78-6.43
				c-1.5,1.13-2.76,2.78-3.77,4.94c-1.15,2.36-1.72,5.02-1.72,7.98c0,2.73,0.51,5.18,1.52,7.35c0.49,1.08,1.07,2.01,1.75,2.79
				c0.68,0.78,1.47,1.47,2.35,2.08C174.57,75.3,175.65,75.77,176.75,76.06 M174.96,74.92c-0.35-0.19-0.75-0.42-1.19-0.71
				c-1.68-1.08-3-2.64-3.97-4.66c-0.97-2.17-1.46-4.54-1.46-7.14c0-2.83,0.55-5.42,1.65-7.77c0.31-0.66,0.64-1.26,0.99-1.8
				c0.35-0.54,0.73-1.07,1.12-1.59c-0.44,1.41-0.77,2.94-0.99,4.59l-0.07,0.71h-0.07v0.92l-0.2,1.55h0.13v1.34
				C170.93,66.92,172.27,71.77,174.96,74.92 M178.2,47.34c-0.66,0.31-1.29,0.82-1.89,1.55c-0.6,0.73-1.11,1.7-1.55,2.9
				c-0.44,1.2-0.77,2.67-0.99,4.42h12.1c-0.18-2.69-0.72-4.87-1.62-6.57c-0.9-1.7-2.17-2.59-3.8-2.69c-0.09-0.05-0.2-0.07-0.33-0.07
				C179.51,46.88,178.87,47.03,178.2,47.34 M186.34,48.78c0.97,1.88,1.56,4.31,1.79,7.28v0.99h2.65c-0.09-0.99-0.25-1.87-0.5-2.65
				c-0.24-0.78-0.54-1.5-0.89-2.15C188.59,50.79,187.58,49.63,186.34,48.78 M187.47,50.41c0.31,0.28,0.58,0.6,0.83,0.95
				c0.24,0.35,0.47,0.72,0.69,1.1v0.07c0.62,1.13,1.06,2.47,1.32,4.03h-1.72l-0.07-0.49C188.39,53.85,188.04,51.96,187.47,50.41"/>
			<path style="clip-path:url(#SVGID_4_);fill:#FFFFFF;" d="M217.99,55.99c-0.82,0.8-1.8,1.2-2.94,1.2h-0.46
				c-1.5-0.24-2.6-1.04-3.31-2.4c-0.35-0.66-0.53-1.39-0.53-2.19c0-0.9,0.2-1.67,0.6-2.33c0.26-0.52,0.4-0.99,0.4-1.41
				c0-0.38-0.11-0.73-0.33-1.06c-0.49-0.57-1.17-0.85-2.05-0.85c-0.75,0.09-1.43,0.33-2.05,0.71c-0.66,0.42-1.17,1.01-1.52,1.77
				c-0.31,0.61-0.55,1.55-0.73,2.83c-0.04,0.38-0.09,0.76-0.13,1.17c-0.04,0.4-0.07,0.86-0.07,1.38v18.86
				c0,0.99,0.32,1.82,0.96,2.51c0.64,0.68,1.4,1.02,2.28,1.02h0.99v1.56h-15.88v-1.56h0.99c0.88,0,1.64-0.34,2.28-1.02
				c0.64-0.68,0.96-1.52,0.96-2.51V52.18c0-0.99-0.31-1.72-0.93-2.19c-0.44-0.33-0.93-0.49-1.46-0.49c-0.26,0-0.55,0.05-0.86,0.14
				l-0.99,0.28v-1.56l11.64-3.46v1.41c1.28-0.47,2.73-0.71,4.37-0.71c1.76,0,3.46,0.31,5.09,0.92c1.59,0.66,2.82,1.51,3.7,2.54
				c0.88,1.04,1.32,2.17,1.32,3.39v0.57C219.26,54.2,218.81,55.19,217.99,55.99 M202.61,73.65V54.72c0.04-0.57,0.08-1.08,0.1-1.55
				c0.02-0.47,0.08-0.9,0.16-1.27c0.13-1.08,0.33-1.98,0.6-2.68l-0.86,0.28v-1.48l-3.77,1.13c0.57,0.94,0.86,1.95,0.86,3.04v21.48
				c0,0.9-0.22,1.81-0.66,2.76h4.23C202.83,75.47,202.61,74.55,202.61,73.65 M202.28,53.13c-0.04,0.49-0.07,1.02-0.07,1.59v18.93
				c0,0.71,0.11,1.46,0.33,2.26h-2.78c0.22-0.8,0.33-1.55,0.33-2.26V52.18c0-0.99-0.2-1.91-0.6-2.75l2.71-0.78v1.48l0.6-0.21
				c-0.13,0.56-0.26,1.2-0.4,1.91C202.37,52.2,202.33,52.63,202.28,53.13 M216.93,51.5c-0.11-0.31-0.3-0.6-0.56-0.88
				c-0.48-0.61-1.1-1.08-1.85-1.41l-1.26,2.26c-0.18,0.33-0.26,0.71-0.26,1.13c0,0.38,0.07,0.73,0.2,1.06
				c0.35,0.66,0.9,1.04,1.65,1.13c0.04,0.05,0.11,0.07,0.2,0.07c0.57,0,1.05-0.2,1.42-0.6c0.38-0.4,0.61-0.88,0.69-1.45v-0.28
				C217.12,52.15,217.04,51.81,216.93,51.5 M216.7,52.53v0.21c-0.04,0.47-0.22,0.86-0.53,1.17c-0.31,0.31-0.68,0.46-1.12,0.46h-0.2
				c-0.53-0.09-0.95-0.4-1.26-0.92c-0.13-0.28-0.2-0.57-0.2-0.85c0-0.38,0.09-0.68,0.26-0.92l1.06-1.84
				c0.49,0.28,0.93,0.66,1.32,1.13C216.48,51.45,216.7,51.96,216.7,52.53"/>
			<rect x="32.69" y="24.54" style="clip-path:url(#SVGID_4_);fill:#FFFFFF;" width="55.15" height="0.35"/>
			<rect x="143.16" y="24.53" style="clip-path:url(#SVGID_4_);fill:#FFFFFF;" width="55.15" height="0.35"/>
			<rect x="32.69" y="26.82" style="clip-path:url(#SVGID_4_);fill:#FFFFFF;" width="55.15" height="1.32"/>
			<rect x="143.16" y="26.82" style="clip-path:url(#SVGID_4_);fill:#FFFFFF;" width="55.15" height="1.32"/>
			<rect x="32.69" y="97.87" style="clip-path:url(#SVGID_4_);fill:#FFFFFF;" width="55.15" height="0.35"/>
			<rect x="143.16" y="97.87" style="clip-path:url(#SVGID_4_);fill:#FFFFFF;" width="55.15" height="0.35"/>
			<rect x="32.69" y="100.15" style="clip-path:url(#SVGID_4_);fill:#FFFFFF;" width="55.15" height="1.32"/>
			<rect x="143.16" y="100.15" style="clip-path:url(#SVGID_4_);fill:#FFFFFF;" width="55.15" height="1.32"/>
			<path class="st2" d="M137.1,18.96c-0.11-0.32-0.27-0.73-0.63-0.73c-0.55,0-0.58,0.55-0.58,0.55s-0.12,2.77-1.55,4.36
				c-1.43,1.59-5.64,2.83-7.68-1.55c-2.04-4.39-5.67-4.08-5.67-4.08c-4.51,0-5.49,2.8-5.49,2.8s-0.97-2.8-5.49-2.8
				c0,0-3.63-0.31-5.67,4.08c-2.04,4.39-6.25,3.14-7.68,1.55c-1.43-1.58-1.56-4.36-1.56-4.36s-0.03-0.55-0.58-0.55
				c-0.35,0-0.51,0.41-0.63,0.73c-0.38,1.05-2.97,15.24,9.95,15.24c11.04,0,11.64-7.62,11.64-7.62s0.61,7.62,11.65,7.62
				C140.07,34.2,137.47,20.01,137.1,18.96"/>
			<path class="st2" d="M129.96,113.75c-0.32-0.25-0.79-0.19-1.04,0.13c-0.56,0.73-1.42,1.14-2.35,1.14c-0.82,0-1.58-0.33-2.14-0.9
				c0.36-0.5,0.57-1.1,0.57-1.76c0-1.66-1.35-3.01-3.01-3.01c-0.46,0-0.9,0.11-1.29,0.3l0,0l-5.85-5.89
				c0.01-0.01,0.02-0.01,0.03-0.02l9.53-11.06c0.26-0.26,0.27-0.7,0.01-0.96l-0.1-0.11c-0.26-0.26-0.69-0.26-0.96,0.01l-10.51,10.03
				c-0.02,0.02-0.03,0.03-0.04,0.05l-10.16-10.22c-0.24-0.28-0.66-0.32-0.95-0.08l-0.11,0.1c-0.28,0.24-0.32,0.66-0.08,0.95
				l8.95,11.2c0,0,0.16,0.2,0.44,0.45l-5.65,5.65c-0.43-0.25-0.94-0.39-1.47-0.39c-1.66,0-3.01,1.35-3.01,3.01s1.35,3.01,3.01,3.01
				c1.66,0,3.01-1.35,3.01-3.01c0-0.59-0.17-1.13-0.46-1.6l5.81-5.81c0.02-0.02,0.04-0.04,0.05-0.07c0.41,0.15,0.88,0.23,1.4,0.15
				l5.88,5.69l0,0c-0.31,0.47-0.49,1.04-0.49,1.64c0,1.66,1.35,3.01,3.01,3.01c0.47,0,0.91-0.11,1.3-0.3
				c0.84,0.91,2.03,1.44,3.28,1.44c1.4,0,2.68-0.63,3.53-1.72C130.35,114.47,130.29,114,129.96,113.75 M103.76,114.22
				c-1.03,0-1.86-0.83-1.86-1.86s0.83-1.86,1.86-1.86c1.03,0,1.86,0.83,1.86,1.86S104.79,114.22,103.76,114.22 M120.13,112.36
				c0-1.03,0.83-1.86,1.86-1.86c1.03,0,1.86,0.83,1.86,1.86s-0.83,1.86-1.86,1.86C120.96,114.22,120.13,113.38,120.13,112.36"/>
			<path style="clip-path:url(#SVGID_4_);fill:#FFFFFF;" d="M76.95,87.32v1.51h-0.43v-1.51h-0.56l0.26-0.43h0.3v-2.12
				c0-0.25,0.06-0.48,0.19-0.69s0.3-0.38,0.51-0.51c0.21-0.13,0.44-0.19,0.69-0.19c0.25,0,0.48,0.06,0.69,0.19
				c0.22,0.13,0.39,0.3,0.51,0.51s0.19,0.45,0.19,0.69v4.07h-0.43v-1.51H76.95z M76.95,86.88h1.92v-2.12c0-0.19-0.05-0.36-0.14-0.5
				c-0.09-0.15-0.21-0.26-0.36-0.34c-0.15-0.08-0.3-0.12-0.46-0.12c-0.28,0-0.51,0.1-0.69,0.29c-0.18,0.19-0.27,0.42-0.27,0.67
				V86.88z"/>
			<polygon style="clip-path:url(#SVGID_4_);fill:#FFFFFF;" points="81.59,87.09 80.88,88.93 79.54,85.61 80.01,85.61 80.87,87.75 
				81.59,85.89 82.3,87.75 83.17,85.61 83.63,85.61 82.3,88.93 			"/>
			<path style="clip-path:url(#SVGID_4_);fill:#FFFFFF;" d="M86.57,87.81l0.38,0.21c-0.14,0.27-0.35,0.48-0.61,0.65
				c-0.27,0.17-0.56,0.25-0.88,0.25c-0.46,0-0.86-0.17-1.2-0.5c-0.34-0.34-0.5-0.73-0.5-1.19c0-0.47,0.17-0.87,0.5-1.2
				c0.33-0.33,0.73-0.5,1.2-0.5c0.29,0,0.57,0.07,0.83,0.22c0.26,0.15,0.46,0.33,0.6,0.56l-2.19,1.94c0.22,0.17,0.48,0.25,0.76,0.25
				c0.24,0,0.46-0.06,0.66-0.18C86.3,88.19,86.46,88.02,86.57,87.81 M84.4,87.93l1.88-1.67c-0.24-0.2-0.51-0.31-0.83-0.31
				c-0.36,0-0.66,0.12-0.9,0.37c-0.24,0.24-0.37,0.54-0.37,0.9C84.18,87.48,84.25,87.72,84.4,87.93"/>
			<path style="clip-path:url(#SVGID_4_);fill:#FFFFFF;" d="M87.57,88.14c0.1,0.21,0.28,0.31,0.52,0.31c0.16,0,0.3-0.05,0.41-0.17
				c0.11-0.11,0.17-0.25,0.17-0.41c0-0.13-0.04-0.25-0.11-0.35c-0.08-0.1-0.17-0.17-0.29-0.2l-0.38-0.11
				c-0.19-0.06-0.34-0.16-0.46-0.31c-0.11-0.15-0.17-0.32-0.17-0.51c0-0.24,0.08-0.44,0.25-0.6c0.17-0.17,0.37-0.25,0.6-0.25
				c0.17,0,0.32,0.05,0.47,0.14c0.14,0.09,0.25,0.22,0.31,0.38l-0.39,0.16c-0.06-0.17-0.19-0.25-0.39-0.25
				c-0.12,0-0.22,0.04-0.3,0.13c-0.08,0.08-0.12,0.18-0.12,0.29c0,0.21,0.1,0.34,0.31,0.4l0.38,0.11c0.22,0.06,0.39,0.17,0.52,0.35
				s0.2,0.38,0.2,0.61c0,0.19-0.04,0.36-0.13,0.51c-0.09,0.15-0.21,0.27-0.36,0.36c-0.15,0.09-0.32,0.13-0.51,0.13
				c-0.19,0-0.36-0.05-0.52-0.14c-0.16-0.1-0.28-0.23-0.38-0.4L87.57,88.14z"/>
			<path style="clip-path:url(#SVGID_4_);fill:#FFFFFF;" d="M91.03,85.52c0.47,0,0.87,0.17,1.2,0.49c0.33,0.33,0.5,0.73,0.5,1.21
				c0,0.46-0.17,0.86-0.5,1.2c-0.33,0.34-0.73,0.5-1.2,0.5c-0.46,0-0.86-0.17-1.2-0.5c-0.34-0.34-0.5-0.73-0.5-1.2
				c0-0.47,0.17-0.87,0.5-1.21C90.17,85.69,90.57,85.52,91.03,85.52 M91.03,85.96c-0.36,0-0.66,0.12-0.9,0.37
				c-0.25,0.24-0.37,0.54-0.37,0.9c0,0.36,0.12,0.66,0.37,0.9c0.24,0.24,0.54,0.37,0.9,0.37c0.35,0,0.65-0.12,0.9-0.37
				c0.25-0.25,0.37-0.55,0.37-0.9c0-0.35-0.12-0.65-0.37-0.9C91.68,86.08,91.38,85.96,91.03,85.96"/>
			<path style="clip-path:url(#SVGID_4_);fill:#FFFFFF;" d="M97.65,88.83h-0.43v-2.05c0-0.25-0.08-0.44-0.24-0.59
				c-0.16-0.15-0.35-0.22-0.57-0.22c-0.21,0-0.4,0.07-0.57,0.22c-0.16,0.15-0.25,0.35-0.25,0.59v2.05h-0.43v-2.05
				c0-0.25-0.08-0.44-0.24-0.59c-0.16-0.15-0.35-0.22-0.57-0.22c-0.21,0-0.41,0.07-0.57,0.22c-0.17,0.15-0.25,0.35-0.25,0.59v2.05
				h-0.43v-3.22l0.36,0.28c0.25-0.25,0.54-0.37,0.89-0.37c0.21,0,0.41,0.05,0.6,0.15c0.19,0.1,0.34,0.23,0.44,0.39
				c0.25-0.36,0.59-0.54,1.03-0.54c0.18,0,0.35,0.03,0.5,0.1c0.15,0.07,0.28,0.16,0.39,0.26c0.11,0.11,0.19,0.24,0.26,0.39
				c0.07,0.15,0.1,0.32,0.1,0.5V88.83z"/>
			<path style="clip-path:url(#SVGID_4_);fill:#FFFFFF;" d="M100.82,87.81l0.38,0.21c-0.14,0.27-0.35,0.48-0.61,0.65
				c-0.27,0.17-0.56,0.25-0.88,0.25c-0.46,0-0.86-0.17-1.2-0.5c-0.34-0.34-0.5-0.73-0.5-1.19c0-0.47,0.17-0.87,0.5-1.2
				c0.33-0.33,0.73-0.5,1.2-0.5c0.29,0,0.57,0.07,0.83,0.22c0.26,0.15,0.46,0.33,0.6,0.56l-2.19,1.94c0.22,0.17,0.48,0.25,0.76,0.25
				c0.24,0,0.46-0.06,0.66-0.18C100.56,88.19,100.71,88.02,100.82,87.81 M98.65,87.93l1.88-1.67c-0.24-0.2-0.51-0.31-0.83-0.31
				c-0.36,0-0.66,0.12-0.9,0.37c-0.24,0.24-0.37,0.54-0.37,0.9C98.44,87.48,98.51,87.72,98.65,87.93"/>
			<polygon style="clip-path:url(#SVGID_4_);fill:#FFFFFF;" points="107.84,88.83 107.4,88.83 107.4,85.61 105.52,85.61 
				105.52,88.83 105.08,88.83 105.08,85.61 104.43,85.61 104.69,85.17 105.08,85.17 105.08,83.48 105.52,83.48 105.52,85.17 
				107.4,85.17 107.4,83.48 107.84,83.48 			"/>
			<path style="clip-path:url(#SVGID_4_);fill:#FFFFFF;" d="M111.12,88.4c-0.34,0.35-0.75,0.53-1.23,0.53c-0.46,0-0.86-0.17-1.2-0.5
				c-0.34-0.34-0.5-0.73-0.5-1.2c0-0.47,0.17-0.87,0.5-1.21c0.34-0.33,0.73-0.49,1.2-0.49c0.48,0,0.89,0.18,1.23,0.53l0.47-0.44
				v3.22L111.12,88.4z M109.89,85.96c-0.36,0-0.66,0.12-0.9,0.37c-0.25,0.24-0.37,0.54-0.37,0.9c0,0.36,0.12,0.66,0.37,0.9
				c0.24,0.24,0.54,0.37,0.9,0.37c0.35,0,0.65-0.12,0.9-0.37s0.37-0.55,0.37-0.9c0-0.35-0.12-0.65-0.37-0.9
				C110.54,86.08,110.24,85.96,109.89,85.96"/>
			<path style="clip-path:url(#SVGID_4_);fill:#FFFFFF;" d="M112.06,84.35h0.43v0.47h-0.43V84.35z M112.06,85.61h0.43v3.22h-0.43
				V85.61z"/>
			<path style="clip-path:url(#SVGID_4_);fill:#FFFFFF;" d="M114.65,85.6l-0.2,0.39c-0.06-0.02-0.14-0.03-0.23-0.03
				c-0.24,0-0.44,0.08-0.59,0.24c-0.15,0.16-0.23,0.36-0.23,0.58v2.04h-0.43v-3.22l0.36,0.29c0.24-0.25,0.54-0.38,0.9-0.38
				C114.38,85.52,114.52,85.55,114.65,85.6"/>
			<path style="clip-path:url(#SVGID_4_);fill:#FFFFFF;" d="M117.89,86.14l-0.34,0.27c-0.26-0.3-0.58-0.45-0.97-0.45
				c-0.36,0-0.66,0.12-0.9,0.37c-0.24,0.24-0.37,0.54-0.37,0.9c0,0.36,0.12,0.66,0.37,0.9c0.24,0.24,0.54,0.37,0.9,0.37
				c0.38,0,0.7-0.14,0.95-0.42l0.34,0.27c-0.16,0.19-0.35,0.33-0.57,0.44c-0.22,0.1-0.46,0.15-0.72,0.15c-0.46,0-0.86-0.17-1.19-0.5
				c-0.34-0.34-0.5-0.73-0.5-1.19c0-0.47,0.17-0.87,0.5-1.2c0.34-0.33,0.73-0.49,1.19-0.49c0.27,0,0.51,0.05,0.73,0.16
				C117.54,85.79,117.73,85.94,117.89,86.14"/>
			<path style="clip-path:url(#SVGID_4_);fill:#FFFFFF;" d="M120.81,85.61v3.22l-0.37-0.3c-0.25,0.26-0.55,0.39-0.91,0.39
				c-0.36,0-0.67-0.12-0.91-0.37c-0.25-0.25-0.37-0.55-0.37-0.91v-2.02h0.43v2.02c0,0.24,0.08,0.44,0.26,0.6
				c0.17,0.16,0.37,0.25,0.59,0.25c0.25,0,0.45-0.09,0.61-0.26c0.16-0.17,0.24-0.37,0.24-0.59v-2.02H120.81z"/>
			<polygon style="clip-path:url(#SVGID_4_);fill:#FFFFFF;" points="121.75,86.04 121.17,86.04 121.17,85.61 121.75,85.61 
				121.75,84.71 122.18,84.49 122.18,85.61 122.75,85.61 122.75,86.04 122.18,86.04 122.18,88.83 121.75,88.83 			"/>
			<path style="clip-path:url(#SVGID_4_);fill:#FFFFFF;" d="M123.37,88.14c0.1,0.21,0.28,0.31,0.52,0.31c0.16,0,0.3-0.05,0.41-0.17
				c0.11-0.11,0.17-0.25,0.17-0.41c0-0.13-0.04-0.25-0.11-0.35c-0.08-0.1-0.17-0.17-0.29-0.2l-0.38-0.11
				c-0.19-0.06-0.34-0.16-0.46-0.31c-0.11-0.15-0.17-0.32-0.17-0.51c0-0.24,0.08-0.44,0.25-0.6c0.17-0.17,0.36-0.25,0.6-0.25
				c0.17,0,0.32,0.05,0.47,0.14c0.14,0.09,0.25,0.22,0.31,0.38l-0.39,0.16c-0.06-0.17-0.19-0.25-0.39-0.25
				c-0.12,0-0.22,0.04-0.3,0.13c-0.08,0.08-0.12,0.18-0.12,0.29c0,0.21,0.1,0.34,0.31,0.4l0.38,0.11c0.22,0.06,0.39,0.17,0.52,0.35
				s0.2,0.38,0.2,0.61c0,0.19-0.04,0.36-0.13,0.51c-0.09,0.15-0.21,0.27-0.36,0.36c-0.15,0.09-0.32,0.13-0.51,0.13
				c-0.19,0-0.36-0.05-0.52-0.14c-0.16-0.1-0.28-0.23-0.38-0.4L123.37,88.14z"/>
			<path style="clip-path:url(#SVGID_4_);fill:#FFFFFF;" d="M131.38,88.44c-0.39,0.33-0.83,0.49-1.32,0.49
				c-0.34,0-0.65-0.08-0.92-0.25c-0.28-0.17-0.5-0.39-0.66-0.66c-0.16-0.28-0.25-0.58-0.25-0.92c0-0.38,0.11-0.72,0.33-1.04
				c0.22-0.31,0.51-0.54,0.89-0.69l-0.19-0.3c-0.1-0.15-0.15-0.32-0.15-0.5c0-0.25,0.09-0.47,0.28-0.66
				c0.18-0.19,0.41-0.28,0.67-0.28c0.26,0,0.49,0.09,0.67,0.27c0.18,0.18,0.28,0.41,0.28,0.67c0,0.2-0.05,0.38-0.16,0.53
				c-0.1,0.16-0.25,0.27-0.43,0.34l-0.32,0.13l1.37,2.19c0.15-0.19,0.27-0.39,0.35-0.59l0.27,0.35c-0.1,0.23-0.22,0.43-0.39,0.62
				l0.43,0.68h-0.51L131.38,88.44z M131.15,88.08l-1.46-2.35c-0.32,0.13-0.57,0.31-0.75,0.56c-0.18,0.25-0.27,0.52-0.27,0.8
				c0,0.4,0.14,0.74,0.42,1c0.28,0.26,0.61,0.4,0.98,0.4C130.45,88.5,130.81,88.36,131.15,88.08 M129.87,85.19l0.39-0.16
				c0.21-0.09,0.31-0.25,0.31-0.47c0-0.14-0.05-0.26-0.14-0.36c-0.09-0.1-0.22-0.15-0.37-0.15c-0.13,0-0.25,0.05-0.35,0.14
				c-0.11,0.09-0.16,0.22-0.16,0.37c0,0.1,0.03,0.19,0.08,0.26L129.87,85.19z"/>
			<path style="clip-path:url(#SVGID_4_);fill:#FFFFFF;" d="M135.89,87.58c0.06,0.27,0.2,0.48,0.41,0.65
				c0.21,0.16,0.44,0.24,0.71,0.24c0.32,0,0.6-0.11,0.82-0.34c0.22-0.22,0.33-0.49,0.33-0.81c0-0.28-0.08-0.51-0.24-0.71
				c-0.16-0.2-0.36-0.33-0.61-0.39l-0.61-0.16c-0.3-0.08-0.54-0.24-0.73-0.48c-0.19-0.24-0.28-0.52-0.28-0.83
				c0-0.38,0.13-0.7,0.4-0.96c0.27-0.26,0.59-0.4,0.96-0.4c0.24,0,0.47,0.06,0.68,0.18c0.21,0.12,0.38,0.29,0.5,0.49l-0.38,0.21
				c-0.17-0.3-0.44-0.46-0.8-0.46c-0.26,0-0.47,0.09-0.66,0.28c-0.18,0.19-0.27,0.4-0.27,0.65c0,0.22,0.07,0.41,0.2,0.57
				c0.13,0.17,0.29,0.28,0.49,0.32l0.61,0.16c0.34,0.09,0.62,0.28,0.84,0.56c0.22,0.28,0.33,0.6,0.33,0.96
				c0,0.44-0.15,0.81-0.46,1.12c-0.31,0.31-0.68,0.46-1.11,0.46c-0.36,0-0.68-0.11-0.97-0.34c-0.28-0.22-0.47-0.51-0.56-0.86
				L135.89,87.58z"/>
			<path style="clip-path:url(#SVGID_4_);fill:#FFFFFF;" d="M141.07,86.81c0-0.25-0.08-0.45-0.25-0.61
				c-0.16-0.16-0.37-0.24-0.6-0.24c-0.24,0-0.44,0.08-0.6,0.25c-0.17,0.17-0.25,0.37-0.25,0.6v2.02h-0.43v-5.35h0.43v2.37
				c0.24-0.22,0.52-0.32,0.85-0.32c0.36,0,0.67,0.12,0.91,0.37c0.25,0.25,0.37,0.55,0.37,0.91v2.02h-0.43V86.81z"/>
			<path style="clip-path:url(#SVGID_4_);fill:#FFFFFF;" d="M144.78,88.4c-0.34,0.35-0.75,0.53-1.23,0.53c-0.46,0-0.86-0.17-1.2-0.5
				c-0.34-0.34-0.5-0.73-0.5-1.2c0-0.47,0.17-0.87,0.5-1.21c0.34-0.33,0.73-0.49,1.2-0.49c0.48,0,0.89,0.18,1.23,0.53l0.47-0.44
				v3.22L144.78,88.4z M143.55,85.96c-0.36,0-0.66,0.12-0.9,0.37c-0.24,0.24-0.37,0.54-0.37,0.9c0,0.36,0.12,0.66,0.37,0.9
				c0.24,0.24,0.54,0.37,0.9,0.37c0.35,0,0.65-0.12,0.9-0.37c0.25-0.25,0.37-0.55,0.37-0.9c0-0.35-0.12-0.65-0.37-0.9
				C144.2,86.08,143.9,85.96,143.55,85.96"/>
			<polygon style="clip-path:url(#SVGID_4_);fill:#FFFFFF;" points="147.53,87.09 146.83,88.93 145.49,85.61 145.95,85.61 
				146.82,87.75 147.53,85.89 148.25,87.75 149.11,85.61 149.58,85.61 148.24,88.93 			"/>
			<path style="clip-path:url(#SVGID_4_);fill:#FFFFFF;" d="M152.51,87.81l0.38,0.21c-0.14,0.27-0.35,0.48-0.61,0.65
				c-0.27,0.17-0.56,0.25-0.88,0.25c-0.46,0-0.86-0.17-1.2-0.5c-0.34-0.34-0.5-0.73-0.5-1.19c0-0.47,0.17-0.87,0.5-1.2
				c0.34-0.33,0.74-0.5,1.2-0.5c0.29,0,0.57,0.07,0.83,0.22c0.26,0.15,0.46,0.33,0.6,0.56l-2.2,1.94c0.22,0.17,0.48,0.25,0.76,0.25
				c0.24,0,0.46-0.06,0.66-0.18C152.25,88.19,152.4,88.02,152.51,87.81 M150.34,87.93l1.88-1.67c-0.24-0.2-0.51-0.31-0.82-0.31
				c-0.36,0-0.66,0.12-0.9,0.37c-0.24,0.24-0.37,0.54-0.37,0.9C150.13,87.48,150.2,87.72,150.34,87.93"/>
			<path style="clip-path:url(#SVGID_4_);fill:#FFFFFF;" d="M153.51,88.14c0.1,0.21,0.28,0.31,0.52,0.31c0.16,0,0.3-0.05,0.41-0.17
				c0.11-0.11,0.17-0.25,0.17-0.41c0-0.13-0.04-0.25-0.12-0.35c-0.08-0.1-0.17-0.17-0.29-0.2l-0.38-0.11
				c-0.19-0.06-0.34-0.16-0.46-0.31c-0.11-0.15-0.17-0.32-0.17-0.51c0-0.24,0.08-0.44,0.25-0.6c0.17-0.17,0.37-0.25,0.6-0.25
				c0.17,0,0.32,0.05,0.47,0.14c0.14,0.09,0.25,0.22,0.31,0.38l-0.39,0.16c-0.06-0.17-0.19-0.25-0.39-0.25
				c-0.12,0-0.22,0.04-0.3,0.13c-0.08,0.08-0.12,0.18-0.12,0.29c0,0.21,0.1,0.34,0.31,0.4l0.38,0.11c0.21,0.06,0.39,0.17,0.52,0.35
				s0.2,0.38,0.2,0.61c0,0.19-0.04,0.36-0.13,0.51c-0.09,0.15-0.21,0.27-0.36,0.36c-0.15,0.09-0.32,0.13-0.51,0.13
				c-0.19,0-0.36-0.05-0.52-0.14c-0.16-0.1-0.28-0.23-0.38-0.4L153.51,88.14z"/>
		</g>
	</g>
</g>
</svg>
